<svg xmlns="http://www.w3.org/2000/svg" xmlns:xlink="http://www.w3.org/1999/xlink" id="Layer_1" x="0px" y="0px" viewBox="0 0 400 73.7" style="enable-background:new 0 0 400 73.7;" xml:space="preserve"><style type="text/css">	.st0{fill-rule:evenodd;clip-rule:evenodd;fill:#002F87;}	.st1{opacity:0.5;}	.st2{fill:#A7A9AC;}</style><g>	<g>		<g>			<polygon class="st0" points="180.4,1.3 182.3,1.3 164.6,72.3 162.6,72.3    "></polygon>			<polygon class="st0" points="196.3,1.3 198.4,1.3 180.6,72.3 178.6,72.3    "></polygon>			<polygon class="st0" points="192.4,1.3 194.3,1.3 176.6,72.3 174.7,72.3    "></polygon>			<polygon class="st0" points="184.4,1.3 186.4,1.3 168.7,72.3 166.6,72.3    "></polygon>			<polygon class="st0" points="188.4,1.3 190.4,1.3 172.7,72.3 170.7,72.3    "></polygon>			<path class="st0" d="M148,38.8l12.7,33.4l17.7-70.9h-2l-7.9,31.9L156.3,1.3l-20.7,0l-15.9,64.8l-6.4-64.8l-23.2,0l-32.4,55    c0.4-1.2,0.6-2.3,0.8-3.5c0.2-1.3,0.3-2.6,0.3-4c-0.1-3.4-0.7-6.3-2-8.7c-0.1-0.1-0.1-0.2-0.2-0.3c-1.3-2.3-3.1-4.3-5.4-6    c-0.2-0.2-0.4-0.3-0.6-0.5c-1.6-1.2-3.5-2.3-5.5-3.4c-0.3-0.1-0.5-0.3-0.8-0.4c-0.5-0.3-1.1-0.5-1.6-0.8    c-2.7-1.3-4.7-2.3-6.1-3.1c-0.2-0.1-0.4-0.2-0.6-0.3c-1.1-0.6-1.8-1.2-2.2-1.6c-0.5-0.6-0.7-1.2-0.7-1.9c0-1.1,0.5-1.9,1.4-2.5    c0.4-0.3,1-0.5,1.5-0.6c0.7-0.2,1.4-0.3,2.2-0.3c2.1,0,4.1,0.4,6.1,1c0.3,0.1,0.5,0.2,0.8,0.3c0.7,0.2,1.5,0.5,2.2,0.9    c2.9,1.3,5.5,2.9,7.6,4.8L66.8,9.6c-0.3-0.3-0.7-0.6-1-0.8c-1-0.8-2.1-1.6-3.3-2.4c-2.4-1.5-5-2.8-7.9-3.8    c-3-1.1-6.1-1.8-9.4-2.2c-0.3,0-0.5-0.1-0.8-0.1c-1.5-0.1-3-0.2-4.5-0.2c-1.3,0-2.6,0.1-3.8,0.2c-3.3,0.3-6.3,0.9-9,2    c-1.5,0.6-2.8,1.2-4.1,1.9c-1.2,0.7-2.3,1.4-3.4,2.3c-0.7,0.5-1.3,1.1-2,1.7c-2.2,2.2-3.9,4.7-5,7.5c-1.2,2.8-1.8,5.8-1.8,9.1    c0,3.2,0.6,6.1,1.9,8.4c1.2,2.3,3,4.5,5.5,6.3c2.4,1.9,5.4,3.7,9.1,5.3c2.6,1.2,4.5,2.1,5.8,2.9c1.3,0.8,2.2,1.4,2.7,2    c0.5,0.6,0.7,1.2,0.6,1.9c0,0.4-0.1,0.8-0.2,1.1c-0.2,0.6-0.6,1.1-1.2,1.5c-0.9,0.6-2.1,0.9-3.6,0.9c-2.4,0-4.9-0.4-7.5-1.3    c-0.8-0.3-1.5-0.6-2.3-0.9c-3.4-1.5-6.8-3.7-10.2-6.7L0,62.5c2.7,2.4,5.7,4.4,8.9,6.1c1.5,0.7,3,1.4,4.5,2    c3.3,1.3,6.7,2.2,10.4,2.6c2,0.2,4,0.4,6,0.4c3.3,0,6.3-0.4,9.1-1c1.3-0.3,2.6-0.7,3.8-1.1c0.6-0.2,1.2-0.5,1.7-0.7    c0.3-0.1,0.5-0.2,0.8-0.4c2.6-1.3,4.9-2.8,6.8-4.8c0.2-0.2,0.3-0.3,0.5-0.5l-4.2,7.1l23.3,0L77,62.2l19.9,0l0.7,10.1l42.1,0    L148,38.8 M85.7,46l9.7-18.5L96.3,46L85.7,46z"></path>		</g>	</g>	<g class="st1">		<g>			<path class="st0" d="M278.3,59.9c0.6-0.1,1.2-0.3,1.7-0.7c0.5-0.3,0.9-0.7,1.2-1.2c0.3-0.5,0.4-1.1,0.4-1.8v0    c0-0.5-0.1-1-0.3-1.4c-0.2-0.4-0.4-0.8-0.7-1.1c-0.4-0.4-0.8-0.7-1.4-0.9c-0.6-0.2-1.2-0.3-1.9-0.3h-4.3l0,13h0.9v-5.3h3.4    l3.6,5.3h1.1L278.3,59.9z M276.9,59.3h-3.1v-6l3.3,0c1.1,0,2,0.3,2.6,0.8c0.6,0.5,0.9,1.2,0.9,2.2v0c0,0.9-0.3,1.7-1,2.2    C279.1,59,278.1,59.2,276.9,59.3z"></path>			<path class="st0" d="M255.9,54.9c-0.6,0.4-1,0.9-1.3,1.6c-0.3,0.7-0.5,1.5-0.5,2.4V59c0,1,0.2,1.8,0.5,2.5    c0.3,0.7,0.8,1.2,1.3,1.6c0.6,0.4,1.2,0.6,2,0.6c0.5,0,0.9-0.1,1.3-0.2c0.4-0.1,0.7-0.3,1-0.5v-2.9h-2.7l0-1.9h4.8V64    c-0.6,0.4-1.2,0.8-1.9,1.1c-0.7,0.3-1.6,0.4-2.5,0.5c-1.2,0-2.2-0.3-3.1-0.8c-0.9-0.5-1.6-1.3-2.1-2.3c-0.5-1-0.8-2.1-0.8-3.5    v-0.1c0-1.3,0.3-2.4,0.8-3.4c0.5-1,1.2-1.8,2.1-2.3c0.9-0.6,1.9-0.9,3.1-0.9c0.9,0,1.6,0.1,2.3,0.4c0.7,0.2,1.3,0.6,1.8,1.1    l-1.3,1.7c-0.4-0.3-0.8-0.6-1.2-0.8c-0.5-0.2-1-0.3-1.7-0.3C257.1,54.3,256.5,54.5,255.9,54.9z"></path>			<path class="st0" d="M341.2,54.3c-0.4-0.6-0.9-1-1.6-1.4c-0.7-0.3-1.5-0.5-2.4-0.5h-3.8v13h0.9v-4.8l2.7,0c0.9,0,1.7-0.2,2.4-0.5    c0.7-0.3,1.3-0.8,1.7-1.4c0.4-0.6,0.6-1.4,0.6-2.3v0C341.7,55.6,341.5,54.9,341.2,54.3z M340.8,56.5c0,1-0.3,1.8-1,2.4    c-0.7,0.6-1.6,0.9-2.7,0.9h-2.7v-6.5h2.8c0.7,0,1.4,0.1,1.9,0.4c0.5,0.2,1,0.6,1.3,1.1C340.7,55.2,340.8,55.8,340.8,56.5    L340.8,56.5z"></path>			<path class="st0" d="M302.1,55.5c-0.5-1-1.1-1.8-1.9-2.3c-0.8-0.6-1.8-0.9-2.9-0.9c-1.1,0-2.1,0.3-2.9,0.9    c-0.8,0.6-1.5,1.4-1.9,2.4c-0.5,1-0.7,2.1-0.7,3.4V59c0,1.3,0.2,2.4,0.7,3.4c0.5,1,1.1,1.8,1.9,2.3c0.8,0.6,1.8,0.9,2.9,0.9    c1.1,0,2.1-0.3,2.9-0.9c0.8-0.6,1.5-1.4,1.9-2.4c0.5-1,0.7-2.1,0.7-3.4v-0.1C302.8,57.6,302.5,56.5,302.1,55.5z M301.8,59    c0,1.1-0.2,2.1-0.6,3c-0.4,0.9-0.9,1.5-1.6,2c-0.7,0.5-1.5,0.7-2.3,0.8c-0.9,0-1.7-0.3-2.3-0.8c-0.7-0.5-1.2-1.2-1.6-2    c-0.4-0.9-0.6-1.9-0.6-3v-0.1c0-1.1,0.2-2.1,0.6-3c0.4-0.9,0.9-1.5,1.6-2c0.7-0.5,1.5-0.7,2.3-0.8c0.9,0,1.7,0.3,2.3,0.8    c0.7,0.5,1.2,1.2,1.6,2c0.4,0.9,0.6,1.9,0.6,3V59z"></path>			<path class="st0" d="M313.3,52.4h0.9v8.2c0,1.3,0.3,2.4,1,3.1c0.6,0.7,1.5,1.1,2.7,1.1c1.1,0,2-0.3,2.6-1c0.6-0.7,1-1.7,1-3.1    l0-8.2h0.9v8.1c0,1.1-0.2,2-0.6,2.8c-0.4,0.7-0.9,1.3-1.6,1.7c-0.7,0.4-1.5,0.6-2.4,0.6c-0.9,0-1.7-0.2-2.4-0.6    c-0.7-0.4-1.2-0.9-1.6-1.7c-0.4-0.7-0.6-1.6-0.6-2.7L313.3,52.4z"></path>		</g>		<g>			<path class="st0" d="M317.5,15.7c0.6-0.1,1.2-0.3,1.7-0.7c0.5-0.3,0.9-0.7,1.2-1.2c0.3-0.5,0.4-1.1,0.4-1.8v0    c0-0.5-0.1-1-0.3-1.4c-0.2-0.4-0.4-0.8-0.7-1.1c-0.4-0.4-0.8-0.7-1.4-0.9c-0.6-0.2-1.2-0.3-1.9-0.3h-4.3l0,13h0.9v-5.3h3.4    l3.6,5.3h1.1L317.5,15.7z M316.2,15h-3.1l0-6h3.3c1.1,0,2,0.3,2.6,0.8c0.6,0.5,0.9,1.2,0.9,2.2v0c0,0.9-0.3,1.7-1,2.2    C318.3,14.7,317.4,15,316.2,15z"></path>			<path class="st0" d="M300.2,8.2h0.9l0,8.1c0,1.1-0.2,2-0.6,2.8c-0.4,0.7-0.9,1.3-1.6,1.7c-0.7,0.4-1.5,0.6-2.4,0.6    c-0.9,0-1.7-0.2-2.4-0.6c-0.7-0.4-1.2-0.9-1.6-1.7c-0.4-0.7-0.6-1.6-0.6-2.7V8.2h0.9v8.2c0,1.3,0.3,2.4,1,3.1    c0.6,0.7,1.5,1.1,2.7,1.1c1.1,0,2-0.3,2.6-1c0.6-0.7,1-1.7,1-3.1V8.2z"></path>			<polygon class="st0" points="371.6,8.2 372.6,8.2 372.6,21.2 371.6,21.2 371.6,9.9 367.3,17.4 367.2,17.4 362.9,9.9 362.9,21.2     362,21.2 362,8.2 362.9,8.2 367.3,15.8    "></polygon>			<rect x="331.7" y="8.2" class="st0" width="0.9" height="13"></rect>			<path class="st0" d="M349,9.2c-0.5-0.2-1.1-0.3-1.7-0.3c-0.6,0-1.1,0.1-1.5,0.3c-0.4,0.2-0.7,0.5-1,0.8c-0.2,0.4-0.3,0.8-0.3,1.2    v0c0,0.4,0.1,0.8,0.3,1.1c0.2,0.3,0.5,0.6,1,0.9c0.5,0.3,1.1,0.6,2,0.9c0.9,0.3,1.6,0.7,2.2,1.1c0.5,0.4,0.9,0.8,1.1,1.2    c0.2,0.4,0.3,0.9,0.3,1.5v0c0,0.7-0.2,1.2-0.5,1.8c-0.3,0.5-0.8,0.9-1.4,1.2c-0.6,0.3-1.2,0.4-2,0.4c-0.8,0-1.6-0.1-2.3-0.4    c-0.7-0.3-1.4-0.7-2.1-1.4l0.6-0.7c0.6,0.6,1.2,1,1.8,1.3c0.6,0.3,1.3,0.4,2,0.4c0.6,0,1.1-0.1,1.5-0.3c0.4-0.2,0.8-0.5,1-0.9    c0.2-0.4,0.4-0.8,0.4-1.3v0c0-0.4-0.1-0.8-0.2-1.1c-0.2-0.3-0.5-0.6-1-0.9c-0.5-0.3-1.1-0.6-1.9-0.9c-0.9-0.3-1.7-0.7-2.2-1    c-0.5-0.4-0.9-0.7-1.2-1.2c-0.2-0.4-0.3-0.9-0.3-1.5v0c0-0.6,0.2-1.2,0.5-1.7c0.3-0.5,0.8-0.9,1.3-1.2c0.6-0.3,1.2-0.4,1.9-0.4    c0.7,0,1.4,0.1,2,0.3c0.6,0.2,1.2,0.6,1.7,1.1l-0.6,0.8C350.1,9.7,349.5,9.4,349,9.2z"></path>			<path class="st0" d="M280.8,11.2c-0.5-1-1.1-1.8-1.9-2.3C278.1,8.3,277.1,8,276,8c-1.1,0-2.1,0.3-2.9,0.9    c-0.8,0.6-1.5,1.4-1.9,2.4c-0.5,1-0.7,2.1-0.7,3.4v0.1c0,1.3,0.2,2.4,0.7,3.4c0.5,1,1.1,1.8,1.9,2.4c0.8,0.6,1.8,0.9,2.9,0.9    c1.1,0,2.1-0.3,2.9-0.9c0.8-0.6,1.5-1.4,1.9-2.4c0.5-1,0.7-2.1,0.7-3.4v-0.1C281.5,13.4,281.2,12.2,280.8,11.2z M280.5,14.8    c0,1.1-0.2,2.1-0.6,3c-0.4,0.9-0.9,1.5-1.6,2c-0.7,0.5-1.5,0.7-2.3,0.8c-0.9,0-1.7-0.3-2.3-0.8c-0.7-0.5-1.2-1.2-1.6-2    c-0.4-0.9-0.6-1.9-0.6-3v-0.1c0-1.1,0.2-2.1,0.6-3c0.4-0.9,0.9-1.5,1.6-2c0.7-0.5,1.5-0.7,2.3-0.8c0.9,0,1.7,0.3,2.3,0.8    c0.7,0.5,1.2,1.2,1.6,2c0.4,0.9,0.6,1.9,0.6,3V14.8z"></path>			<polygon class="st0" points="251.9,8.2 251.9,10.2 255.3,10.2 255.3,21.2 257.5,21.2 257.5,10.2 260.9,10.2 260.9,8.2    "></polygon>		</g>		<g>			<path class="st0" d="M357.4,30.2h-0.9l-5.1,13.1h0.9l1.4-3.6h6.4l1.4,3.6h1L357.4,30.2z M354.1,38.9l2.9-7.5l2.8,7.5H354.1z"></path>			<path class="st0" d="M378.1,37.8c0.6-0.1,1.2-0.3,1.7-0.7c0.5-0.3,0.9-0.7,1.2-1.2c0.3-0.5,0.4-1.1,0.4-1.8v0    c0-0.5-0.1-1-0.3-1.4c-0.2-0.4-0.4-0.8-0.7-1.1c-0.4-0.4-0.8-0.7-1.4-0.9c-0.6-0.2-1.2-0.3-1.9-0.3l-4.3,0v13h0.9V38l3.4,0    l3.6,5.3h1.1L378.1,37.8z M376.8,37.1h-3.1v-6h3.3c1.1,0,2,0.3,2.6,0.8c0.6,0.5,0.9,1.2,0.9,2.2v0c0,0.9-0.3,1.7-1,2.2    C378.9,36.9,378,37.1,376.8,37.1z"></path>			<polygon class="st0" points="393.1,31.2 393.1,36.3 399.2,36.3 399.2,37.2 393.1,37.2 393.1,42.5 400,42.5 400,43.3 392.1,43.3     392.1,30.3 399.9,30.3 399.9,31.2    "></polygon>			<path class="st0" d="M281.6,36.8c0-1.3-0.2-2.4-0.7-3.4c-0.5-1-1.1-1.8-1.9-2.3c-0.8-0.6-1.8-0.9-2.9-0.9c-1.1,0-2.1,0.3-2.9,0.9    c-0.8,0.6-1.5,1.4-1.9,2.4c-0.5,1-0.7,2.1-0.7,3.4v0.1c0,1.3,0.2,2.4,0.7,3.4c0.5,1,1.1,1.8,1.9,2.3c0.8,0.6,1.8,0.9,2.9,0.9    c1.1,0,2.1-0.3,2.9-0.9c0.8-0.6,1.5-1.4,1.9-2.4c0.5-1,0.7-2.1,0.7-3.4L281.6,36.8z M280,39.9c-0.4,0.9-0.9,1.5-1.6,2    c-0.7,0.5-1.5,0.7-2.3,0.8c-0.9,0-1.7-0.3-2.3-0.8c-0.7-0.5-1.2-1.2-1.6-2c-0.4-0.9-0.6-1.9-0.6-3v-0.1c0-1.1,0.2-2.1,0.6-3    c0.4-0.9,0.9-1.5,1.6-2c0.7-0.5,1.5-0.7,2.3-0.8c0.9,0,1.7,0.3,2.3,0.8c0.7,0.5,1.2,1.2,1.6,2c0.4,0.9,0.6,1.9,0.6,3l0,0.1    C280.6,38,280.4,39,280,39.9z"></path>			<path class="st0" d="M252.8,35.6c-0.3-0.5-0.4-1.1-0.4-1.7v0c0-0.7,0.2-1.3,0.5-1.9c0.3-0.5,0.8-1,1.4-1.3    c0.6-0.3,1.3-0.5,2.1-0.5c0.8,0,1.5,0.1,2.2,0.4c0.7,0.2,1.3,0.6,1.9,1.1l-1.2,1.6c-0.4-0.4-0.9-0.7-1.4-0.9    c-0.5-0.2-1-0.3-1.5-0.3c-0.6,0-1.1,0.2-1.4,0.4c-0.3,0.3-0.5,0.6-0.5,1.1v0c0,0.3,0.1,0.6,0.2,0.8c0.1,0.2,0.4,0.5,0.8,0.7    c0.4,0.2,1,0.5,1.7,0.8c0.8,0.3,1.5,0.6,2,1c0.5,0.3,0.9,0.8,1.2,1.2c0.3,0.5,0.4,1,0.4,1.6v0c0,0.8-0.2,1.4-0.5,2    c-0.4,0.6-0.9,1-1.5,1.3c-0.6,0.3-1.4,0.5-2.2,0.5c-0.8,0-1.7-0.2-2.4-0.5c-0.8-0.3-1.5-0.8-2.2-1.4l1.3-1.6    c0.5,0.4,1,0.8,1.6,1.1c0.6,0.3,1.2,0.4,1.9,0.4c0.6,0,1.1-0.2,1.5-0.5c0.4-0.3,0.5-0.7,0.6-1.2v0c0-0.3-0.1-0.5-0.2-0.7    c-0.1-0.2-0.4-0.4-0.7-0.7c-0.4-0.2-0.9-0.5-1.6-0.7c-0.8-0.3-1.5-0.6-2.1-1C253.5,36.4,253.1,36,252.8,35.6z"></path>			<polygon class="st0" points="327.4,30.3 328.4,30.3 331.8,41.8 335,30.3 335.8,30.3 339.1,41.8 342.4,30.3 343.4,30.3     339.4,43.4 338.7,43.4 335.4,32.1 332.1,43.4 331.3,43.4    "></polygon>			<polygon class="st0" points="318,30.3 318,31.2 314.2,31.2 314.2,43.3 313.2,43.3 313.2,31.2 309.5,31.2 309.5,30.3    "></polygon>			<polygon class="st0" points="299.9,30.3 299.9,31.2 293.2,31.2 293.2,36.6 299.2,36.6 299.2,37.4 293.2,37.4 293.2,43.3     292.3,43.3 292.3,30.3    "></polygon>		</g>	</g>	<g>		<path class="st2" d="M224.9,58.5c-0.4,0-0.7-0.3-0.7-0.7V15.9c0-0.4,0.3-0.7,0.7-0.7c0.4,0,0.7,0.3,0.7,0.7v41.8   C225.7,58.1,225.3,58.5,224.9,58.5z"></path>	</g></g></svg>